<?xml version="1.0" encoding="utf-8" standalone="no"?>
<!DOCTYPE svg PUBLIC "-//W3C//DTD SVG 1.1//EN"
  "http://www.w3.org/Graphics/SVG/1.1/DTD/svg11.dtd">
<!-- Created with matplotlib (http://matplotlib.org/) -->
<svg height="345pt" version="1.1" viewBox="0 0 460 345" width="460pt" xmlns="http://www.w3.org/2000/svg" xmlns:xlink="http://www.w3.org/1999/xlink">
 <defs>
  <style type="text/css">
*{stroke-linecap:butt;stroke-linejoin:round;}
  </style>
 </defs>
 <g id="figure_1">
  <g id="patch_1">
   <path d="M 0 345.6 
L 460.8 345.6 
L 460.8 0 
L 0 0 
z
" style="fill:#ffffff;"/>
  </g>
  <g id="axes_1">
   <g id="patch_2">
    <path d="M 57.6 307.584 
L 414.72 307.584 
L 414.72 41.472 
L 57.6 41.472 
z
" style="fill:#ffffff;"/>
   </g>
   <g id="matplotlib.axis_1">
    <g id="xtick_1">
     <g id="line2d_1">
      <defs>
       <path d="M 0 0 
L 0 3.5 
" id="m200c1e8288" style="stroke:#000000;stroke-width:0.8;"/>
      </defs>
      <g>
       <use style="stroke:#000000;stroke-width:0.8;" x="73.832727" xlink:href="#m200c1e8288" y="307.584"/>
      </g>
     </g>
     <g id="text_1">
      <!-- 0.0 -->
      <defs>
       <path d="M 31.78125 66.40625 
Q 24.171875 66.40625 20.328125 58.90625 
Q 16.5 51.421875 16.5 36.375 
Q 16.5 21.390625 20.328125 13.890625 
Q 24.171875 6.390625 31.78125 6.390625 
Q 39.453125 6.390625 43.28125 13.890625 
Q 47.125 21.390625 47.125 36.375 
Q 47.125 51.421875 43.28125 58.90625 
Q 39.453125 66.40625 31.78125 66.40625 
z
M 31.78125 74.21875 
Q 44.046875 74.21875 50.515625 64.515625 
Q 56.984375 54.828125 56.984375 36.375 
Q 56.984375 17.96875 50.515625 8.265625 
Q 44.046875 -1.421875 31.78125 -1.421875 
Q 19.53125 -1.421875 13.0625 8.265625 
Q 6.59375 17.96875 6.59375 36.375 
Q 6.59375 54.828125 13.0625 64.515625 
Q 19.53125 74.21875 31.78125 74.21875 
z
" id="DejaVuSans-30"/>
       <path d="M 10.6875 12.40625 
L 21 12.40625 
L 21 0 
L 10.6875 0 
z
" id="DejaVuSans-2e"/>
      </defs>
      <g transform="translate(65.881165 322.182437)scale(0.1 -0.1)">
       <use xlink:href="#DejaVuSans-30"/>
       <use x="63.623047" xlink:href="#DejaVuSans-2e"/>
       <use x="95.410156" xlink:href="#DejaVuSans-30"/>
      </g>
     </g>
    </g>
    <g id="xtick_2">
     <g id="line2d_2">
      <g>
       <use style="stroke:#000000;stroke-width:0.8;" x="138.763636" xlink:href="#m200c1e8288" y="307.584"/>
      </g>
     </g>
     <g id="text_2">
      <!-- 0.2 -->
      <defs>
       <path d="M 19.1875 8.296875 
L 53.609375 8.296875 
L 53.609375 0 
L 7.328125 0 
L 7.328125 8.296875 
Q 12.9375 14.109375 22.625 23.890625 
Q 32.328125 33.6875 34.8125 36.53125 
Q 39.546875 41.84375 41.421875 45.53125 
Q 43.3125 49.21875 43.3125 52.78125 
Q 43.3125 58.59375 39.234375 62.25 
Q 35.15625 65.921875 28.609375 65.921875 
Q 23.96875 65.921875 18.8125 64.3125 
Q 13.671875 62.703125 7.8125 59.421875 
L 7.8125 69.390625 
Q 13.765625 71.78125 18.9375 73 
Q 24.125 74.21875 28.421875 74.21875 
Q 39.75 74.21875 46.484375 68.546875 
Q 53.21875 62.890625 53.21875 53.421875 
Q 53.21875 48.921875 51.53125 44.890625 
Q 49.859375 40.875 45.40625 35.40625 
Q 44.1875 33.984375 37.640625 27.21875 
Q 31.109375 20.453125 19.1875 8.296875 
z
" id="DejaVuSans-32"/>
      </defs>
      <g transform="translate(130.812074 322.182437)scale(0.1 -0.1)">
       <use xlink:href="#DejaVuSans-30"/>
       <use x="63.623047" xlink:href="#DejaVuSans-2e"/>
       <use x="95.410156" xlink:href="#DejaVuSans-32"/>
      </g>
     </g>
    </g>
    <g id="xtick_3">
     <g id="line2d_3">
      <g>
       <use style="stroke:#000000;stroke-width:0.8;" x="203.694545" xlink:href="#m200c1e8288" y="307.584"/>
      </g>
     </g>
     <g id="text_3">
      <!-- 0.4 -->
      <defs>
       <path d="M 37.796875 64.3125 
L 12.890625 25.390625 
L 37.796875 25.390625 
z
M 35.203125 72.90625 
L 47.609375 72.90625 
L 47.609375 25.390625 
L 58.015625 25.390625 
L 58.015625 17.1875 
L 47.609375 17.1875 
L 47.609375 0 
L 37.796875 0 
L 37.796875 17.1875 
L 4.890625 17.1875 
L 4.890625 26.703125 
z
" id="DejaVuSans-34"/>
      </defs>
      <g transform="translate(195.742983 322.182437)scale(0.1 -0.1)">
       <use xlink:href="#DejaVuSans-30"/>
       <use x="63.623047" xlink:href="#DejaVuSans-2e"/>
       <use x="95.410156" xlink:href="#DejaVuSans-34"/>
      </g>
     </g>
    </g>
    <g id="xtick_4">
     <g id="line2d_4">
      <g>
       <use style="stroke:#000000;stroke-width:0.8;" x="268.625455" xlink:href="#m200c1e8288" y="307.584"/>
      </g>
     </g>
     <g id="text_4">
      <!-- 0.6 -->
      <defs>
       <path d="M 33.015625 40.375 
Q 26.375 40.375 22.484375 35.828125 
Q 18.609375 31.296875 18.609375 23.390625 
Q 18.609375 15.53125 22.484375 10.953125 
Q 26.375 6.390625 33.015625 6.390625 
Q 39.65625 6.390625 43.53125 10.953125 
Q 47.40625 15.53125 47.40625 23.390625 
Q 47.40625 31.296875 43.53125 35.828125 
Q 39.65625 40.375 33.015625 40.375 
z
M 52.59375 71.296875 
L 52.59375 62.3125 
Q 48.875 64.0625 45.09375 64.984375 
Q 41.3125 65.921875 37.59375 65.921875 
Q 27.828125 65.921875 22.671875 59.328125 
Q 17.53125 52.734375 16.796875 39.40625 
Q 19.671875 43.65625 24.015625 45.921875 
Q 28.375 48.1875 33.59375 48.1875 
Q 44.578125 48.1875 50.953125 41.515625 
Q 57.328125 34.859375 57.328125 23.390625 
Q 57.328125 12.15625 50.6875 5.359375 
Q 44.046875 -1.421875 33.015625 -1.421875 
Q 20.359375 -1.421875 13.671875 8.265625 
Q 6.984375 17.96875 6.984375 36.375 
Q 6.984375 53.65625 15.1875 63.9375 
Q 23.390625 74.21875 37.203125 74.21875 
Q 40.921875 74.21875 44.703125 73.484375 
Q 48.484375 72.75 52.59375 71.296875 
z
" id="DejaVuSans-36"/>
      </defs>
      <g transform="translate(260.673892 322.182437)scale(0.1 -0.1)">
       <use xlink:href="#DejaVuSans-30"/>
       <use x="63.623047" xlink:href="#DejaVuSans-2e"/>
       <use x="95.410156" xlink:href="#DejaVuSans-36"/>
      </g>
     </g>
    </g>
    <g id="xtick_5">
     <g id="line2d_5">
      <g>
       <use style="stroke:#000000;stroke-width:0.8;" x="333.556364" xlink:href="#m200c1e8288" y="307.584"/>
      </g>
     </g>
     <g id="text_5">
      <!-- 0.8 -->
      <defs>
       <path d="M 31.78125 34.625 
Q 24.75 34.625 20.71875 30.859375 
Q 16.703125 27.09375 16.703125 20.515625 
Q 16.703125 13.921875 20.71875 10.15625 
Q 24.75 6.390625 31.78125 6.390625 
Q 38.8125 6.390625 42.859375 10.171875 
Q 46.921875 13.96875 46.921875 20.515625 
Q 46.921875 27.09375 42.890625 30.859375 
Q 38.875 34.625 31.78125 34.625 
z
M 21.921875 38.8125 
Q 15.578125 40.375 12.03125 44.71875 
Q 8.5 49.078125 8.5 55.328125 
Q 8.5 64.0625 14.71875 69.140625 
Q 20.953125 74.21875 31.78125 74.21875 
Q 42.671875 74.21875 48.875 69.140625 
Q 55.078125 64.0625 55.078125 55.328125 
Q 55.078125 49.078125 51.53125 44.71875 
Q 48 40.375 41.703125 38.8125 
Q 48.828125 37.15625 52.796875 32.3125 
Q 56.78125 27.484375 56.78125 20.515625 
Q 56.78125 9.90625 50.3125 4.234375 
Q 43.84375 -1.421875 31.78125 -1.421875 
Q 19.734375 -1.421875 13.25 4.234375 
Q 6.78125 9.90625 6.78125 20.515625 
Q 6.78125 27.484375 10.78125 32.3125 
Q 14.796875 37.15625 21.921875 38.8125 
z
M 18.3125 54.390625 
Q 18.3125 48.734375 21.84375 45.5625 
Q 25.390625 42.390625 31.78125 42.390625 
Q 38.140625 42.390625 41.71875 45.5625 
Q 45.3125 48.734375 45.3125 54.390625 
Q 45.3125 60.0625 41.71875 63.234375 
Q 38.140625 66.40625 31.78125 66.40625 
Q 25.390625 66.40625 21.84375 63.234375 
Q 18.3125 60.0625 18.3125 54.390625 
z
" id="DejaVuSans-38"/>
      </defs>
      <g transform="translate(325.604801 322.182437)scale(0.1 -0.1)">
       <use xlink:href="#DejaVuSans-30"/>
       <use x="63.623047" xlink:href="#DejaVuSans-2e"/>
       <use x="95.410156" xlink:href="#DejaVuSans-38"/>
      </g>
     </g>
    </g>
    <g id="xtick_6">
     <g id="line2d_6">
      <g>
       <use style="stroke:#000000;stroke-width:0.8;" x="398.487273" xlink:href="#m200c1e8288" y="307.584"/>
      </g>
     </g>
     <g id="text_6">
      <!-- 1.0 -->
      <defs>
       <path d="M 12.40625 8.296875 
L 28.515625 8.296875 
L 28.515625 63.921875 
L 10.984375 60.40625 
L 10.984375 69.390625 
L 28.421875 72.90625 
L 38.28125 72.90625 
L 38.28125 8.296875 
L 54.390625 8.296875 
L 54.390625 0 
L 12.40625 0 
z
" id="DejaVuSans-31"/>
      </defs>
      <g transform="translate(390.53571 322.182437)scale(0.1 -0.1)">
       <use xlink:href="#DejaVuSans-31"/>
       <use x="63.623047" xlink:href="#DejaVuSans-2e"/>
       <use x="95.410156" xlink:href="#DejaVuSans-30"/>
      </g>
     </g>
    </g>
   </g>
   <g id="matplotlib.axis_2">
    <g id="ytick_1">
     <g id="line2d_7">
      <defs>
       <path d="M 0 0 
L -3.5 0 
" id="mc3f46fc134" style="stroke:#000000;stroke-width:0.8;"/>
      </defs>
      <g>
       <use style="stroke:#000000;stroke-width:0.8;" x="57.6" xlink:href="#mc3f46fc134" y="299.641134"/>
      </g>
     </g>
     <g id="text_7">
      <!-- 0.0 -->
      <g transform="translate(34.696875 303.440353)scale(0.1 -0.1)">
       <use xlink:href="#DejaVuSans-30"/>
       <use x="63.623047" xlink:href="#DejaVuSans-2e"/>
       <use x="95.410156" xlink:href="#DejaVuSans-30"/>
      </g>
     </g>
    </g>
    <g id="ytick_2">
     <g id="line2d_8">
      <g>
       <use style="stroke:#000000;stroke-width:0.8;" x="57.6" xlink:href="#mc3f46fc134" y="246.481017"/>
      </g>
     </g>
     <g id="text_8">
      <!-- 0.2 -->
      <g transform="translate(34.696875 250.280235)scale(0.1 -0.1)">
       <use xlink:href="#DejaVuSans-30"/>
       <use x="63.623047" xlink:href="#DejaVuSans-2e"/>
       <use x="95.410156" xlink:href="#DejaVuSans-32"/>
      </g>
     </g>
    </g>
    <g id="ytick_3">
     <g id="line2d_9">
      <g>
       <use style="stroke:#000000;stroke-width:0.8;" x="57.6" xlink:href="#mc3f46fc134" y="193.320899"/>
      </g>
     </g>
     <g id="text_9">
      <!-- 0.4 -->
      <g transform="translate(34.696875 197.120118)scale(0.1 -0.1)">
       <use xlink:href="#DejaVuSans-30"/>
       <use x="63.623047" xlink:href="#DejaVuSans-2e"/>
       <use x="95.410156" xlink:href="#DejaVuSans-34"/>
      </g>
     </g>
    </g>
    <g id="ytick_4">
     <g id="line2d_10">
      <g>
       <use style="stroke:#000000;stroke-width:0.8;" x="57.6" xlink:href="#mc3f46fc134" y="140.160781"/>
      </g>
     </g>
     <g id="text_10">
      <!-- 0.6 -->
      <g transform="translate(34.696875 143.96)scale(0.1 -0.1)">
       <use xlink:href="#DejaVuSans-30"/>
       <use x="63.623047" xlink:href="#DejaVuSans-2e"/>
       <use x="95.410156" xlink:href="#DejaVuSans-36"/>
      </g>
     </g>
    </g>
    <g id="ytick_5">
     <g id="line2d_11">
      <g>
       <use style="stroke:#000000;stroke-width:0.8;" x="57.6" xlink:href="#mc3f46fc134" y="87.000664"/>
      </g>
     </g>
     <g id="text_11">
      <!-- 0.8 -->
      <g transform="translate(34.696875 90.799883)scale(0.1 -0.1)">
       <use xlink:href="#DejaVuSans-30"/>
       <use x="63.623047" xlink:href="#DejaVuSans-2e"/>
       <use x="95.410156" xlink:href="#DejaVuSans-38"/>
      </g>
     </g>
    </g>
   </g>
   <g id="line2d_12">
    <path clip-path="url(#p316bf16137)" d="M 73.832727 276.798896 
L 74.92584 266.416061 
L 76.018953 156.358138 
L 77.112066 249.803524 
L 78.205179 279.913734 
L 79.298292 238.382338 
L 80.391405 165.702623 
L 81.484518 271.607412 
L 82.577631 274.722329 
L 83.670744 183.353377 
L 84.763857 223.846502 
L 85.85697 278.875463 
L 86.950083 261.224709 
L 88.043196 141.822035 
L 89.136309 262.262926 
L 90.229421 280.95203 
L 91.322534 225.922936 
L 92.415647 178.162026 
L 93.50876 275.760599 
L 94.601873 276.798896 
L 95.694986 166.74084 
L 96.788099 235.267421 
L 97.881212 281.990327 
L 98.974325 261.224709 
L 100.067438 135.592201 
L 101.160551 266.416061 
L 102.253664 281.990327 
L 103.346777 224.884719 
L 104.43989 177.123543 
L 105.533003 278.875463 
L 106.626116 277.837193 
L 107.719229 166.74084 
L 108.812342 234.229204 
L 109.905455 283.028597 
L 110.998567 265.377844 
L 112.09168 127.285932 
L 113.184793 265.377844 
L 114.277906 285.105165 
L 115.371019 239.420821 
L 116.464132 157.396355 
L 117.557245 278.875463 
L 118.650358 283.028597 
L 119.743471 189.583211 
L 120.836584 214.502016 
L 121.929697 284.066868 
L 123.02281 275.760599 
L 124.115923 133.515767 
L 125.209036 252.918441 
L 126.302149 285.105165 
L 127.395262 262.262926 
L 128.488375 116.90323 
L 129.581488 272.645895 
L 130.674601 286.143461 
L 131.767713 237.344121 
L 132.860826 154.281438 
L 133.953939 280.95203 
L 135.047052 285.105165 
L 136.140165 197.889479 
L 137.233278 203.080831 
L 138.326391 285.105165 
L 139.419504 281.990327 
L 140.512617 149.090086 
L 141.60573 239.420821 
L 142.698843 288.220002 
L 143.791956 277.837193 
L 144.885069 109.635179 
L 145.978182 260.186227 
L 147.071295 288.220002 
L 148.164408 272.645895 
L 149.257521 89.907991 
L 150.350634 271.607412 
L 151.443747 289.258299 
L 152.53686 268.492495 
L 153.629972 85.754591 
L 154.723085 277.837193 
L 155.816198 290.296596 
L 156.909311 268.492495 
L 158.002424 76.410105 
L 159.095537 278.875463 
L 160.18865 291.334866 
L 161.281763 277.837193 
L 162.374876 56.682917 
L 163.467989 276.798896 
L 164.561102 291.334866 
L 165.654215 290.296596 
L 166.747328 116.90323 
L 167.840441 251.879958 
L 168.933554 292.373136 
L 170.026667 295.488 
L 171.11978 295.488 
L 172.212893 190.621428 
L 173.306006 242.535473 
L 174.399118 270.569195 
L 175.492231 225.922936 
L 176.585344 217.616668 
L 177.678457 264.339626 
L 178.77157 250.841741 
L 179.864683 201.004131 
L 180.957796 249.803524 
L 182.050909 263.301144 
L 183.144022 218.654885 
L 184.237135 221.769802 
L 185.330248 264.339626 
L 186.423361 248.765307 
L 187.516474 196.850997 
L 188.609587 251.879958 
L 189.7027 265.377844 
L 190.795813 213.463533 
L 191.888926 222.808285 
L 192.982039 266.416061 
L 194.075152 247.72709 
L 195.168264 192.697862 
L 196.261377 254.994875 
L 197.35449 267.454278 
L 198.447603 211.387099 
L 199.540716 222.808285 
L 200.633829 267.454278 
L 201.726942 248.765307 
L 202.820055 186.468294 
L 203.913168 257.071575 
L 205.006281 268.492495 
L 206.099394 209.310399 
L 207.192507 220.731585 
L 208.28562 270.569195 
L 209.378733 250.841741 
L 210.471846 181.276943 
L 211.564959 257.071575 
L 212.658072 270.569195 
L 213.751185 210.348616 
L 214.844298 214.502016 
L 215.93741 272.645895 
L 217.030523 254.994875 
L 218.123636 176.085326 
L 219.216749 256.033358 
L 220.309862 273.684059 
L 221.402975 216.57845 
L 222.496088 206.195748 
L 223.589201 272.645895 
L 224.682314 262.262926 
L 225.775427 171.932191 
L 226.86854 251.879958 
L 227.961653 275.760599 
L 229.054766 224.884719 
L 230.147879 193.736079 
L 231.240992 271.607412 
L 232.334105 267.454278 
L 233.427218 174.008891 
L 234.520331 244.612173 
L 235.613444 277.837193 
L 236.706556 240.459038 
L 237.799669 175.047109 
L 238.892782 270.569195 
L 239.985895 273.684059 
L 241.079008 186.468294 
L 242.172121 229.037853 
L 243.265234 278.875463 
L 244.358347 254.994875 
L 245.45146 159.472789 
L 246.544573 264.339626 
L 247.637686 276.798896 
L 248.730799 210.348616 
L 249.823912 205.157265 
L 250.917025 277.837193 
L 252.010138 268.492495 
L 253.103251 157.396355 
L 254.196364 253.956658 
L 255.289477 279.913734 
L 256.38259 238.382338 
L 257.475702 169.855757 
L 258.568815 274.722329 
L 259.661928 276.798896 
L 260.755041 181.276943 
L 262.941267 280.95203 
L 264.03438 262.262926 
L 265.127493 143.898469 
L 266.220606 264.339626 
L 267.313719 280.95203 
L 268.406832 224.884719 
L 269.499945 183.353377 
L 270.593058 278.875463 
L 271.686171 275.760599 
L 272.779284 163.625923 
L 273.872397 239.420821 
L 274.96551 283.028597 
L 276.058623 260.186227 
L 277.151736 137.668901 
L 278.244848 268.492495 
L 279.337961 283.028597 
L 280.431074 221.769802 
L 281.524187 183.353377 
L 282.6173 280.95203 
L 283.710413 277.837193 
L 284.803526 162.587706 
L 285.896639 238.382338 
L 286.989752 284.066868 
L 288.082865 266.416061 
L 289.175978 129.362632 
L 290.269091 268.492495 
L 291.362204 285.105165 
L 292.455317 235.267421 
L 293.54843 164.664406 
L 294.641543 279.913734 
L 295.734656 281.990327 
L 296.827769 182.31516 
L 297.920882 221.769802 
L 299.013994 285.105165 
L 300.107107 274.722329 
L 301.20022 129.362632 
L 302.293333 258.109792 
L 303.386446 286.143461 
L 304.479559 260.186227 
L 305.572672 123.133064 
L 306.665785 274.722329 
L 307.758898 287.181732 
L 308.852011 232.15277 
L 309.945124 165.702623 
L 311.038237 283.028597 
L 312.13135 285.105165 
L 313.224463 188.544728 
L 314.317576 215.540233 
L 315.410689 287.181732 
L 316.503802 281.990327 
L 317.596915 137.668901 
L 318.690028 248.765307 
L 319.78314 288.220002 
L 320.876253 275.760599 
L 321.969366 103.40561 
L 323.062479 266.416061 
L 324.155592 290.296596 
L 325.248705 268.492495 
L 326.341818 95.099342 
L 327.434931 275.760599 
L 328.528044 290.296596 
L 329.621157 262.262926 
L 330.71427 100.290693 
L 331.807383 280.95203 
L 332.900496 291.334866 
L 333.993609 261.224709 
L 335.086722 97.175776 
L 336.179835 283.028597 
L 337.272948 291.334866 
L 338.366061 269.530978 
L 339.459174 71.218754 
L 340.552287 284.066868 
L 341.645399 293.411433 
L 342.738512 285.105165 
L 343.831625 53.568 
L 344.924738 273.684059 
L 346.017851 293.411433 
L 347.110964 295.488 
L 348.204077 273.684059 
L 349.29719 57.721134 
L 350.390303 287.181732 
L 351.483416 292.373136 
L 352.576529 280.95203 
L 353.669642 90.946208 
L 354.762755 269.530978 
L 355.855868 289.258299 
L 356.948981 260.186227 
L 358.042094 124.171281 
L 359.135207 278.875463 
L 360.22832 288.220002 
L 361.321433 222.808285 
L 362.414545 181.276943 
L 363.507658 285.105165 
L 364.600771 285.105165 
L 365.693884 172.970674 
L 367.88011 288.220002 
L 368.973223 278.875463 
L 370.066336 124.171281 
L 371.159449 259.148009 
L 372.252562 290.296596 
L 373.345675 270.569195 
L 374.438788 104.443827 
L 375.531901 273.684059 
L 376.625014 289.258299 
L 377.718127 257.071575 
L 378.81124 116.90323 
L 379.904353 281.990327 
L 380.997466 289.258299 
L 382.090579 241.497256 
L 383.183691 144.936952 
L 384.276804 285.105165 
L 385.369917 290.296596 
L 387.556143 164.664406 
L 388.649256 288.220002 
L 389.742369 292.373136 
L 390.835482 231.114553 
L 391.928595 163.625923 
L 393.021708 289.258299 
L 394.114821 293.411433 
L 395.207934 249.803524 
L 396.301047 121.056364 
L 397.39416 288.220002 
L 398.487273 293.411433 
L 398.487273 293.411433 
" style="fill:none;stroke:#1f77b4;stroke-linecap:square;stroke-width:1.5;"/>
   </g>
   <g id="line2d_13">
    <path clip-path="url(#p316bf16137)" d="M 73.832727 268.302827 
L 74.92584 272.366047 
L 76.018953 159.078846 
L 77.112066 259.669238 
L 78.205179 280.946358 
L 79.298292 239.116863 
L 80.391405 166.983711 
L 81.484518 269.710207 
L 82.577631 279.574648 
L 83.670744 177.22239 
L 84.763857 231.837207 
L 85.85697 276.553098 
L 86.950083 271.323949 
L 88.043196 150.846199 
L 89.136309 268.183775 
L 90.229421 282.529118 
L 91.322534 222.172154 
L 92.415647 175.363434 
L 93.50876 270.731747 
L 94.601873 279.209271 
L 95.694986 160.720409 
L 96.788099 244.039242 
L 97.881212 280.924044 
L 98.974325 267.519956 
L 100.067438 142.906438 
L 101.160551 270.786061 
L 102.253664 285.405939 
L 103.346777 222.728686 
L 104.43989 170.662936 
L 105.533003 272.476944 
L 106.626116 283.086506 
L 107.719229 160.808822 
L 108.812342 240.869669 
L 109.905455 284.300579 
L 110.998567 271.299536 
L 112.09168 139.010446 
L 113.184793 270.825179 
L 114.277906 287.267465 
L 115.371019 239.395197 
L 116.464132 146.73338 
L 117.557245 273.547507 
L 118.650358 284.003429 
L 119.743471 181.51729 
L 120.836584 210.015616 
L 121.929697 282.07143 
L 123.02281 280.478102 
L 124.115923 138.03161 
L 125.209036 261.525282 
L 126.302149 288.632733 
L 127.395262 265.561323 
L 128.488375 130.258509 
L 129.581488 274.929218 
L 130.674601 287.82642 
L 131.767713 240.207601 
L 132.860826 140.20273 
L 133.953939 275.752554 
L 135.047052 286.909038 
L 136.140165 191.863598 
L 137.233278 189.644063 
L 138.326391 283.910783 
L 139.419504 283.962261 
L 140.512617 148.092683 
L 141.60573 245.08781 
L 142.698843 290.445114 
L 143.791956 277.600439 
L 144.885069 127.402823 
L 145.978182 267.538817 
L 147.071295 290.766441 
L 148.164408 268.200606 
L 149.257521 120.34735 
L 150.350634 275.43612 
L 151.443747 290.736609 
L 152.53686 261.680112 
L 153.629972 114.324459 
L 154.723085 278.172738 
L 155.816198 290.266613 
L 156.909311 266.053328 
L 158.002424 108.964294 
L 159.095537 279.517195 
L 160.18865 290.613248 
L 161.281763 267.189068 
L 162.374876 107.572797 
L 163.467989 278.334402 
L 164.561102 292.335188 
L 165.654215 271.595993 
L 166.747328 154.742329 
L 167.840441 246.169415 
L 168.933554 295.356328 
L 170.026667 282.091024 
L 171.11978 271.003438 
L 172.212893 215.592562 
L 173.306006 214.757426 
L 174.399118 272.695911 
L 175.492231 219.495144 
L 176.585344 212.74667 
L 177.678457 255.854644 
L 178.77157 250.86207 
L 179.864683 196.86806 
L 180.957796 250.761297 
L 182.050909 259.250497 
L 183.144022 212.732721 
L 184.237135 225.870454 
L 185.330248 255.897104 
L 186.423361 247.932223 
L 187.516474 196.185172 
L 188.609587 253.148601 
L 189.7027 262.018081 
L 190.795813 208.481353 
L 191.888926 227.633096 
L 192.982039 258.090146 
L 194.075152 248.097532 
L 195.168264 193.290673 
L 196.261377 256.242834 
L 197.35449 264.421523 
L 198.447603 203.185202 
L 199.540716 226.487589 
L 200.633829 259.0702 
L 201.726942 251.487721 
L 202.820055 189.133089 
L 203.913168 258.048863 
L 205.006281 266.287043 
L 206.099394 202.686203 
L 207.192507 225.99965 
L 208.28562 261.822907 
L 209.378733 252.324194 
L 210.471846 182.650524 
L 211.564959 259.225641 
L 212.658072 268.509529 
L 213.751185 202.746058 
L 214.844298 220.623918 
L 215.93741 263.130169 
L 217.030523 261.688824 
L 218.123636 175.370761 
L 219.216749 259.475329 
L 220.309862 272.871085 
L 221.402975 209.995128 
L 222.496088 209.340362 
L 223.589201 264.861272 
L 224.682314 266.927813 
L 225.775427 168.598791 
L 226.86854 257.65516 
L 227.961653 274.652742 
L 229.054766 220.088342 
L 230.147879 195.750194 
L 231.240992 264.596563 
L 232.334105 272.963994 
L 233.427218 169.449964 
L 234.520331 252.037948 
L 235.613444 275.389352 
L 236.706556 242.057893 
L 237.799669 173.235597 
L 238.892782 266.909959 
L 239.985895 278.18697 
L 241.079008 175.881291 
L 242.172121 236.184922 
L 243.265234 273.114494 
L 244.358347 261.711627 
L 245.45146 159.117223 
L 246.544573 266.904827 
L 247.637686 277.730367 
L 248.730799 204.692881 
L 249.823912 204.880319 
L 250.917025 269.765728 
L 252.010138 275.190491 
L 253.103251 152.865314 
L 254.196364 260.01396 
L 255.289477 280.375272 
L 256.38259 240.094989 
L 257.475702 166.517208 
L 258.568815 269.415508 
L 259.661928 280.592243 
L 260.755041 168.880286 
L 261.848154 234.434047 
L 262.941267 278.421467 
L 264.03438 269.62889 
L 265.127493 146.510467 
L 266.220606 268.526572 
L 267.313719 283.273136 
L 268.406832 223.197081 
L 269.499945 175.886456 
L 270.593058 271.020003 
L 271.686171 281.629725 
L 272.779284 156.279029 
L 273.872397 247.662311 
L 274.96551 282.835546 
L 276.058623 265.498384 
L 277.151736 141.111364 
L 278.244848 271.381956 
L 279.337961 284.795424 
L 280.431074 216.844262 
L 281.524187 173.559139 
L 282.6173 273.044309 
L 283.710413 282.554171 
L 284.803526 152.879917 
L 285.896639 245.265339 
L 286.989752 286.005591 
L 288.082865 269.454642 
L 289.175978 134.08844 
L 290.269091 271.323801 
L 291.362204 286.733497 
L 292.455317 229.83066 
L 293.54843 151.731863 
L 294.641543 273.480025 
L 295.734656 285.945293 
L 296.827769 173.861227 
L 297.920882 220.157068 
L 299.013994 284.920117 
L 300.107107 280.585001 
L 301.20022 135.606514 
L 302.293333 264.780814 
L 303.386446 288.697616 
L 304.479559 262.886258 
L 305.572672 128.489817 
L 306.665785 275.308099 
L 307.758898 288.083397 
L 308.852011 229.539939 
L 309.945124 145.743913 
L 311.038237 276.147552 
L 312.13135 286.368067 
L 313.224463 178.986699 
L 314.317576 203.384789 
L 315.410689 287.579296 
L 316.503802 283.620081 
L 317.596915 137.875943 
L 318.690028 253.955344 
L 319.78314 291.028508 
L 320.876253 276.59205 
L 321.969366 123.890473 
L 323.062479 271.412741 
L 324.155592 291.069602 
L 325.248705 266.775322 
L 326.341818 116.279476 
L 327.434931 277.188696 
L 328.528044 291.079194 
L 329.621157 261.098748 
L 330.71427 111.519062 
L 331.807383 279.009298 
L 332.900496 289.942611 
L 333.993609 255.537802 
L 335.086722 106.178017 
L 336.179835 280.093615 
L 337.272948 290.279744 
L 338.366061 262.556873 
L 339.459174 101.527277 
L 340.552287 280.930131 
L 341.645399 291.339045 
L 342.738512 268.11186 
L 343.831625 111.734805 
L 344.924738 274.002269 
L 346.017851 293.7962 
L 347.110964 275.571043 
L 348.204077 267.051779 
L 349.29719 80.642395 
L 350.390303 283.425796 
L 351.483416 290.977748 
L 352.576529 266.772893 
L 353.669642 109.420149 
L 354.762755 273.731677 
L 355.855868 291.290255 
L 356.948981 259.740676 
L 358.042094 119.203777 
L 359.135207 276.293119 
L 360.22832 289.243141 
L 362.414545 155.844127 
L 363.507658 278.430406 
L 364.600771 286.602723 
L 365.693884 163.424707 
L 367.88011 289.398342 
L 368.973223 281.316613 
L 370.066336 128.303983 
L 371.159449 264.211169 
L 372.252562 292.13357 
L 373.345675 269.402369 
L 374.438788 117.020823 
L 375.531901 275.276621 
L 376.625014 290.817978 
L 377.718127 257.124958 
L 378.81124 117.10903 
L 379.904353 278.205802 
L 380.997466 289.568143 
L 382.090579 245.276626 
L 383.183691 123.141214 
L 384.276804 278.574334 
L 385.369917 290.113835 
L 386.46303 233.295655 
L 387.556143 128.947543 
L 388.649256 282.485644 
L 389.742369 289.334299 
L 390.835482 234.981095 
L 391.928595 119.981467 
L 393.021708 284.729004 
L 394.114821 289.949313 
L 395.207934 252.129622 
L 396.301047 99.311864 
L 397.39416 281.801822 
L 398.487273 290.623063 
L 398.487273 290.623063 
" style="fill:none;stroke:#ff7f0e;stroke-linecap:square;stroke-width:1.5;"/>
   </g>
   <g id="patch_3">
    <path d="M 57.6 307.584 
L 57.6 41.472 
" style="fill:none;stroke:#000000;stroke-linecap:square;stroke-linejoin:miter;stroke-width:0.8;"/>
   </g>
   <g id="patch_4">
    <path d="M 414.72 307.584 
L 414.72 41.472 
" style="fill:none;stroke:#000000;stroke-linecap:square;stroke-linejoin:miter;stroke-width:0.8;"/>
   </g>
   <g id="patch_5">
    <path d="M 57.6 307.584 
L 414.72 307.584 
" style="fill:none;stroke:#000000;stroke-linecap:square;stroke-linejoin:miter;stroke-width:0.8;"/>
   </g>
   <g id="patch_6">
    <path d="M 57.6 41.472 
L 414.72 41.472 
" style="fill:none;stroke:#000000;stroke-linecap:square;stroke-linejoin:miter;stroke-width:0.8;"/>
   </g>
   <g id="text_12">
    <!-- Plot of Train Data vs MCMC Uncertainty  -->
    <defs>
     <path d="M 19.671875 64.796875 
L 19.671875 37.40625 
L 32.078125 37.40625 
Q 38.96875 37.40625 42.71875 40.96875 
Q 46.484375 44.53125 46.484375 51.125 
Q 46.484375 57.671875 42.71875 61.234375 
Q 38.96875 64.796875 32.078125 64.796875 
z
M 9.8125 72.90625 
L 32.078125 72.90625 
Q 44.34375 72.90625 50.609375 67.359375 
Q 56.890625 61.8125 56.890625 51.125 
Q 56.890625 40.328125 50.609375 34.8125 
Q 44.34375 29.296875 32.078125 29.296875 
L 19.671875 29.296875 
L 19.671875 0 
L 9.8125 0 
z
" id="DejaVuSans-50"/>
     <path d="M 9.421875 75.984375 
L 18.40625 75.984375 
L 18.40625 0 
L 9.421875 0 
z
" id="DejaVuSans-6c"/>
     <path d="M 30.609375 48.390625 
Q 23.390625 48.390625 19.1875 42.75 
Q 14.984375 37.109375 14.984375 27.296875 
Q 14.984375 17.484375 19.15625 11.84375 
Q 23.34375 6.203125 30.609375 6.203125 
Q 37.796875 6.203125 41.984375 11.859375 
Q 46.1875 17.53125 46.1875 27.296875 
Q 46.1875 37.015625 41.984375 42.703125 
Q 37.796875 48.390625 30.609375 48.390625 
z
M 30.609375 56 
Q 42.328125 56 49.015625 48.375 
Q 55.71875 40.765625 55.71875 27.296875 
Q 55.71875 13.875 49.015625 6.21875 
Q 42.328125 -1.421875 30.609375 -1.421875 
Q 18.84375 -1.421875 12.171875 6.21875 
Q 5.515625 13.875 5.515625 27.296875 
Q 5.515625 40.765625 12.171875 48.375 
Q 18.84375 56 30.609375 56 
z
" id="DejaVuSans-6f"/>
     <path d="M 18.3125 70.21875 
L 18.3125 54.6875 
L 36.8125 54.6875 
L 36.8125 47.703125 
L 18.3125 47.703125 
L 18.3125 18.015625 
Q 18.3125 11.328125 20.140625 9.421875 
Q 21.96875 7.515625 27.59375 7.515625 
L 36.8125 7.515625 
L 36.8125 0 
L 27.59375 0 
Q 17.1875 0 13.234375 3.875 
Q 9.28125 7.765625 9.28125 18.015625 
L 9.28125 47.703125 
L 2.6875 47.703125 
L 2.6875 54.6875 
L 9.28125 54.6875 
L 9.28125 70.21875 
z
" id="DejaVuSans-74"/>
     <path id="DejaVuSans-20"/>
     <path d="M 37.109375 75.984375 
L 37.109375 68.5 
L 28.515625 68.5 
Q 23.6875 68.5 21.796875 66.546875 
Q 19.921875 64.59375 19.921875 59.515625 
L 19.921875 54.6875 
L 34.71875 54.6875 
L 34.71875 47.703125 
L 19.921875 47.703125 
L 19.921875 0 
L 10.890625 0 
L 10.890625 47.703125 
L 2.296875 47.703125 
L 2.296875 54.6875 
L 10.890625 54.6875 
L 10.890625 58.5 
Q 10.890625 67.625 15.140625 71.796875 
Q 19.390625 75.984375 28.609375 75.984375 
z
" id="DejaVuSans-66"/>
     <path d="M -0.296875 72.90625 
L 61.375 72.90625 
L 61.375 64.59375 
L 35.5 64.59375 
L 35.5 0 
L 25.59375 0 
L 25.59375 64.59375 
L -0.296875 64.59375 
z
" id="DejaVuSans-54"/>
     <path d="M 41.109375 46.296875 
Q 39.59375 47.171875 37.8125 47.578125 
Q 36.03125 48 33.890625 48 
Q 26.265625 48 22.1875 43.046875 
Q 18.109375 38.09375 18.109375 28.8125 
L 18.109375 0 
L 9.078125 0 
L 9.078125 54.6875 
L 18.109375 54.6875 
L 18.109375 46.1875 
Q 20.953125 51.171875 25.484375 53.578125 
Q 30.03125 56 36.53125 56 
Q 37.453125 56 38.578125 55.875 
Q 39.703125 55.765625 41.0625 55.515625 
z
" id="DejaVuSans-72"/>
     <path d="M 34.28125 27.484375 
Q 23.390625 27.484375 19.1875 25 
Q 14.984375 22.515625 14.984375 16.5 
Q 14.984375 11.71875 18.140625 8.90625 
Q 21.296875 6.109375 26.703125 6.109375 
Q 34.1875 6.109375 38.703125 11.40625 
Q 43.21875 16.703125 43.21875 25.484375 
L 43.21875 27.484375 
z
M 52.203125 31.203125 
L 52.203125 0 
L 43.21875 0 
L 43.21875 8.296875 
Q 40.140625 3.328125 35.546875 0.953125 
Q 30.953125 -1.421875 24.3125 -1.421875 
Q 15.921875 -1.421875 10.953125 3.296875 
Q 6 8.015625 6 15.921875 
Q 6 25.140625 12.171875 29.828125 
Q 18.359375 34.515625 30.609375 34.515625 
L 43.21875 34.515625 
L 43.21875 35.40625 
Q 43.21875 41.609375 39.140625 45 
Q 35.0625 48.390625 27.6875 48.390625 
Q 23 48.390625 18.546875 47.265625 
Q 14.109375 46.140625 10.015625 43.890625 
L 10.015625 52.203125 
Q 14.9375 54.109375 19.578125 55.046875 
Q 24.21875 56 28.609375 56 
Q 40.484375 56 46.34375 49.84375 
Q 52.203125 43.703125 52.203125 31.203125 
z
" id="DejaVuSans-61"/>
     <path d="M 9.421875 54.6875 
L 18.40625 54.6875 
L 18.40625 0 
L 9.421875 0 
z
M 9.421875 75.984375 
L 18.40625 75.984375 
L 18.40625 64.59375 
L 9.421875 64.59375 
z
" id="DejaVuSans-69"/>
     <path d="M 54.890625 33.015625 
L 54.890625 0 
L 45.90625 0 
L 45.90625 32.71875 
Q 45.90625 40.484375 42.875 44.328125 
Q 39.84375 48.1875 33.796875 48.1875 
Q 26.515625 48.1875 22.3125 43.546875 
Q 18.109375 38.921875 18.109375 30.90625 
L 18.109375 0 
L 9.078125 0 
L 9.078125 54.6875 
L 18.109375 54.6875 
L 18.109375 46.1875 
Q 21.34375 51.125 25.703125 53.5625 
Q 30.078125 56 35.796875 56 
Q 45.21875 56 50.046875 50.171875 
Q 54.890625 44.34375 54.890625 33.015625 
z
" id="DejaVuSans-6e"/>
     <path d="M 19.671875 64.796875 
L 19.671875 8.109375 
L 31.59375 8.109375 
Q 46.6875 8.109375 53.6875 14.9375 
Q 60.6875 21.78125 60.6875 36.53125 
Q 60.6875 51.171875 53.6875 57.984375 
Q 46.6875 64.796875 31.59375 64.796875 
z
M 9.8125 72.90625 
L 30.078125 72.90625 
Q 51.265625 72.90625 61.171875 64.09375 
Q 71.09375 55.28125 71.09375 36.53125 
Q 71.09375 17.671875 61.125 8.828125 
Q 51.171875 0 30.078125 0 
L 9.8125 0 
z
" id="DejaVuSans-44"/>
     <path d="M 2.984375 54.6875 
L 12.5 54.6875 
L 29.59375 8.796875 
L 46.6875 54.6875 
L 56.203125 54.6875 
L 35.6875 0 
L 23.484375 0 
z
" id="DejaVuSans-76"/>
     <path d="M 44.28125 53.078125 
L 44.28125 44.578125 
Q 40.484375 46.53125 36.375 47.5 
Q 32.28125 48.484375 27.875 48.484375 
Q 21.1875 48.484375 17.84375 46.4375 
Q 14.5 44.390625 14.5 40.28125 
Q 14.5 37.15625 16.890625 35.375 
Q 19.28125 33.59375 26.515625 31.984375 
L 29.59375 31.296875 
Q 39.15625 29.25 43.1875 25.515625 
Q 47.21875 21.78125 47.21875 15.09375 
Q 47.21875 7.46875 41.1875 3.015625 
Q 35.15625 -1.421875 24.609375 -1.421875 
Q 20.21875 -1.421875 15.453125 -0.5625 
Q 10.6875 0.296875 5.421875 2 
L 5.421875 11.28125 
Q 10.40625 8.6875 15.234375 7.390625 
Q 20.0625 6.109375 24.8125 6.109375 
Q 31.15625 6.109375 34.5625 8.28125 
Q 37.984375 10.453125 37.984375 14.40625 
Q 37.984375 18.0625 35.515625 20.015625 
Q 33.0625 21.96875 24.703125 23.78125 
L 21.578125 24.515625 
Q 13.234375 26.265625 9.515625 29.90625 
Q 5.8125 33.546875 5.8125 39.890625 
Q 5.8125 47.609375 11.28125 51.796875 
Q 16.75 56 26.8125 56 
Q 31.78125 56 36.171875 55.265625 
Q 40.578125 54.546875 44.28125 53.078125 
z
" id="DejaVuSans-73"/>
     <path d="M 9.8125 72.90625 
L 24.515625 72.90625 
L 43.109375 23.296875 
L 61.8125 72.90625 
L 76.515625 72.90625 
L 76.515625 0 
L 66.890625 0 
L 66.890625 64.015625 
L 48.09375 14.015625 
L 38.1875 14.015625 
L 19.390625 64.015625 
L 19.390625 0 
L 9.8125 0 
z
" id="DejaVuSans-4d"/>
     <path d="M 64.40625 67.28125 
L 64.40625 56.890625 
Q 59.421875 61.53125 53.78125 63.8125 
Q 48.140625 66.109375 41.796875 66.109375 
Q 29.296875 66.109375 22.65625 58.46875 
Q 16.015625 50.828125 16.015625 36.375 
Q 16.015625 21.96875 22.65625 14.328125 
Q 29.296875 6.6875 41.796875 6.6875 
Q 48.140625 6.6875 53.78125 8.984375 
Q 59.421875 11.28125 64.40625 15.921875 
L 64.40625 5.609375 
Q 59.234375 2.09375 53.4375 0.328125 
Q 47.65625 -1.421875 41.21875 -1.421875 
Q 24.65625 -1.421875 15.125 8.703125 
Q 5.609375 18.84375 5.609375 36.375 
Q 5.609375 53.953125 15.125 64.078125 
Q 24.65625 74.21875 41.21875 74.21875 
Q 47.75 74.21875 53.53125 72.484375 
Q 59.328125 70.75 64.40625 67.28125 
z
" id="DejaVuSans-43"/>
     <path d="M 8.6875 72.90625 
L 18.609375 72.90625 
L 18.609375 28.609375 
Q 18.609375 16.890625 22.84375 11.734375 
Q 27.09375 6.59375 36.625 6.59375 
Q 46.09375 6.59375 50.34375 11.734375 
Q 54.59375 16.890625 54.59375 28.609375 
L 54.59375 72.90625 
L 64.5 72.90625 
L 64.5 27.390625 
Q 64.5 13.140625 57.4375 5.859375 
Q 50.390625 -1.421875 36.625 -1.421875 
Q 22.796875 -1.421875 15.734375 5.859375 
Q 8.6875 13.140625 8.6875 27.390625 
z
" id="DejaVuSans-55"/>
     <path d="M 48.78125 52.59375 
L 48.78125 44.1875 
Q 44.96875 46.296875 41.140625 47.34375 
Q 37.3125 48.390625 33.40625 48.390625 
Q 24.65625 48.390625 19.8125 42.84375 
Q 14.984375 37.3125 14.984375 27.296875 
Q 14.984375 17.28125 19.8125 11.734375 
Q 24.65625 6.203125 33.40625 6.203125 
Q 37.3125 6.203125 41.140625 7.25 
Q 44.96875 8.296875 48.78125 10.40625 
L 48.78125 2.09375 
Q 45.015625 0.34375 40.984375 -0.53125 
Q 36.96875 -1.421875 32.421875 -1.421875 
Q 20.0625 -1.421875 12.78125 6.34375 
Q 5.515625 14.109375 5.515625 27.296875 
Q 5.515625 40.671875 12.859375 48.328125 
Q 20.21875 56 33.015625 56 
Q 37.15625 56 41.109375 55.140625 
Q 45.0625 54.296875 48.78125 52.59375 
z
" id="DejaVuSans-63"/>
     <path d="M 56.203125 29.59375 
L 56.203125 25.203125 
L 14.890625 25.203125 
Q 15.484375 15.921875 20.484375 11.0625 
Q 25.484375 6.203125 34.421875 6.203125 
Q 39.59375 6.203125 44.453125 7.46875 
Q 49.3125 8.734375 54.109375 11.28125 
L 54.109375 2.78125 
Q 49.265625 0.734375 44.1875 -0.34375 
Q 39.109375 -1.421875 33.890625 -1.421875 
Q 20.796875 -1.421875 13.15625 6.1875 
Q 5.515625 13.8125 5.515625 26.8125 
Q 5.515625 40.234375 12.765625 48.109375 
Q 20.015625 56 32.328125 56 
Q 43.359375 56 49.78125 48.890625 
Q 56.203125 41.796875 56.203125 29.59375 
z
M 47.21875 32.234375 
Q 47.125 39.59375 43.09375 43.984375 
Q 39.0625 48.390625 32.421875 48.390625 
Q 24.90625 48.390625 20.390625 44.140625 
Q 15.875 39.890625 15.1875 32.171875 
z
" id="DejaVuSans-65"/>
     <path d="M 32.171875 -5.078125 
Q 28.375 -14.84375 24.75 -17.8125 
Q 21.140625 -20.796875 15.09375 -20.796875 
L 7.90625 -20.796875 
L 7.90625 -13.28125 
L 13.1875 -13.28125 
Q 16.890625 -13.28125 18.9375 -11.515625 
Q 21 -9.765625 23.484375 -3.21875 
L 25.09375 0.875 
L 2.984375 54.6875 
L 12.5 54.6875 
L 29.59375 11.921875 
L 46.6875 54.6875 
L 56.203125 54.6875 
z
" id="DejaVuSans-79"/>
    </defs>
    <g transform="translate(115.666875 35.472)scale(0.12 -0.12)">
     <use xlink:href="#DejaVuSans-50"/>
     <use x="60.302734" xlink:href="#DejaVuSans-6c"/>
     <use x="88.085938" xlink:href="#DejaVuSans-6f"/>
     <use x="149.267578" xlink:href="#DejaVuSans-74"/>
     <use x="188.476562" xlink:href="#DejaVuSans-20"/>
     <use x="220.263672" xlink:href="#DejaVuSans-6f"/>
     <use x="281.445312" xlink:href="#DejaVuSans-66"/>
     <use x="316.650391" xlink:href="#DejaVuSans-20"/>
     <use x="348.4375" xlink:href="#DejaVuSans-54"/>
     <use x="409.302734" xlink:href="#DejaVuSans-72"/>
     <use x="450.416016" xlink:href="#DejaVuSans-61"/>
     <use x="511.695312" xlink:href="#DejaVuSans-69"/>
     <use x="539.478516" xlink:href="#DejaVuSans-6e"/>
     <use x="602.857422" xlink:href="#DejaVuSans-20"/>
     <use x="634.644531" xlink:href="#DejaVuSans-44"/>
     <use x="711.646484" xlink:href="#DejaVuSans-61"/>
     <use x="772.925781" xlink:href="#DejaVuSans-74"/>
     <use x="812.134766" xlink:href="#DejaVuSans-61"/>
     <use x="873.414062" xlink:href="#DejaVuSans-20"/>
     <use x="905.201172" xlink:href="#DejaVuSans-76"/>
     <use x="964.380859" xlink:href="#DejaVuSans-73"/>
     <use x="1016.480469" xlink:href="#DejaVuSans-20"/>
     <use x="1048.267578" xlink:href="#DejaVuSans-4d"/>
     <use x="1134.546875" xlink:href="#DejaVuSans-43"/>
     <use x="1204.371094" xlink:href="#DejaVuSans-4d"/>
     <use x="1290.650391" xlink:href="#DejaVuSans-43"/>
     <use x="1360.474609" xlink:href="#DejaVuSans-20"/>
     <use x="1392.261719" xlink:href="#DejaVuSans-55"/>
     <use x="1465.455078" xlink:href="#DejaVuSans-6e"/>
     <use x="1528.833984" xlink:href="#DejaVuSans-63"/>
     <use x="1583.814453" xlink:href="#DejaVuSans-65"/>
     <use x="1645.337891" xlink:href="#DejaVuSans-72"/>
     <use x="1686.451172" xlink:href="#DejaVuSans-74"/>
     <use x="1725.660156" xlink:href="#DejaVuSans-61"/>
     <use x="1786.939453" xlink:href="#DejaVuSans-69"/>
     <use x="1814.722656" xlink:href="#DejaVuSans-6e"/>
     <use x="1878.101562" xlink:href="#DejaVuSans-74"/>
     <use x="1917.310547" xlink:href="#DejaVuSans-79"/>
     <use x="1976.490234" xlink:href="#DejaVuSans-20"/>
    </g>
   </g>
   <g id="legend_1">
    <g id="patch_7">
     <path d="M 293.8075 78.82825 
L 407.72 78.82825 
Q 409.72 78.82825 409.72 76.82825 
L 409.72 48.472 
Q 409.72 46.472 407.72 46.472 
L 293.8075 46.472 
Q 291.8075 46.472 291.8075 48.472 
L 291.8075 76.82825 
Q 291.8075 78.82825 293.8075 78.82825 
z
" style="fill:#ffffff;opacity:0.8;stroke:#cccccc;stroke-linejoin:miter;"/>
    </g>
    <g id="line2d_14">
     <path d="M 295.8075 54.570437 
L 315.8075 54.570437 
" style="fill:none;stroke:#1f77b4;stroke-linecap:square;stroke-width:1.5;"/>
    </g>
    <g id="line2d_15"/>
    <g id="text_13">
     <!-- actual -->
     <defs>
      <path d="M 8.5 21.578125 
L 8.5 54.6875 
L 17.484375 54.6875 
L 17.484375 21.921875 
Q 17.484375 14.15625 20.5 10.265625 
Q 23.53125 6.390625 29.59375 6.390625 
Q 36.859375 6.390625 41.078125 11.03125 
Q 45.3125 15.671875 45.3125 23.6875 
L 45.3125 54.6875 
L 54.296875 54.6875 
L 54.296875 0 
L 45.3125 0 
L 45.3125 8.40625 
Q 42.046875 3.421875 37.71875 1 
Q 33.40625 -1.421875 27.6875 -1.421875 
Q 18.265625 -1.421875 13.375 4.4375 
Q 8.5 10.296875 8.5 21.578125 
z
M 31.109375 56 
z
" id="DejaVuSans-75"/>
     </defs>
     <g transform="translate(323.8075 58.070437)scale(0.1 -0.1)">
      <use xlink:href="#DejaVuSans-61"/>
      <use x="61.279297" xlink:href="#DejaVuSans-63"/>
      <use x="116.259766" xlink:href="#DejaVuSans-74"/>
      <use x="155.46875" xlink:href="#DejaVuSans-75"/>
      <use x="218.847656" xlink:href="#DejaVuSans-61"/>
      <use x="280.126953" xlink:href="#DejaVuSans-6c"/>
     </g>
    </g>
    <g id="line2d_16">
     <path d="M 295.8075 69.248562 
L 315.8075 69.248562 
" style="fill:none;stroke:#ff7f0e;stroke-linecap:square;stroke-width:1.5;"/>
    </g>
    <g id="line2d_17"/>
    <g id="text_14">
     <!-- predicted (train) -->
     <defs>
      <path d="M 18.109375 8.203125 
L 18.109375 -20.796875 
L 9.078125 -20.796875 
L 9.078125 54.6875 
L 18.109375 54.6875 
L 18.109375 46.390625 
Q 20.953125 51.265625 25.265625 53.625 
Q 29.59375 56 35.59375 56 
Q 45.5625 56 51.78125 48.09375 
Q 58.015625 40.1875 58.015625 27.296875 
Q 58.015625 14.40625 51.78125 6.484375 
Q 45.5625 -1.421875 35.59375 -1.421875 
Q 29.59375 -1.421875 25.265625 0.953125 
Q 20.953125 3.328125 18.109375 8.203125 
z
M 48.6875 27.296875 
Q 48.6875 37.203125 44.609375 42.84375 
Q 40.53125 48.484375 33.40625 48.484375 
Q 26.265625 48.484375 22.1875 42.84375 
Q 18.109375 37.203125 18.109375 27.296875 
Q 18.109375 17.390625 22.1875 11.75 
Q 26.265625 6.109375 33.40625 6.109375 
Q 40.53125 6.109375 44.609375 11.75 
Q 48.6875 17.390625 48.6875 27.296875 
z
" id="DejaVuSans-70"/>
      <path d="M 45.40625 46.390625 
L 45.40625 75.984375 
L 54.390625 75.984375 
L 54.390625 0 
L 45.40625 0 
L 45.40625 8.203125 
Q 42.578125 3.328125 38.25 0.953125 
Q 33.9375 -1.421875 27.875 -1.421875 
Q 17.96875 -1.421875 11.734375 6.484375 
Q 5.515625 14.40625 5.515625 27.296875 
Q 5.515625 40.1875 11.734375 48.09375 
Q 17.96875 56 27.875 56 
Q 33.9375 56 38.25 53.625 
Q 42.578125 51.265625 45.40625 46.390625 
z
M 14.796875 27.296875 
Q 14.796875 17.390625 18.875 11.75 
Q 22.953125 6.109375 30.078125 6.109375 
Q 37.203125 6.109375 41.296875 11.75 
Q 45.40625 17.390625 45.40625 27.296875 
Q 45.40625 37.203125 41.296875 42.84375 
Q 37.203125 48.484375 30.078125 48.484375 
Q 22.953125 48.484375 18.875 42.84375 
Q 14.796875 37.203125 14.796875 27.296875 
z
" id="DejaVuSans-64"/>
      <path d="M 31 75.875 
Q 24.46875 64.65625 21.28125 53.65625 
Q 18.109375 42.671875 18.109375 31.390625 
Q 18.109375 20.125 21.3125 9.0625 
Q 24.515625 -2 31 -13.1875 
L 23.1875 -13.1875 
Q 15.875 -1.703125 12.234375 9.375 
Q 8.59375 20.453125 8.59375 31.390625 
Q 8.59375 42.28125 12.203125 53.3125 
Q 15.828125 64.359375 23.1875 75.875 
z
" id="DejaVuSans-28"/>
      <path d="M 8.015625 75.875 
L 15.828125 75.875 
Q 23.140625 64.359375 26.78125 53.3125 
Q 30.421875 42.28125 30.421875 31.390625 
Q 30.421875 20.453125 26.78125 9.375 
Q 23.140625 -1.703125 15.828125 -13.1875 
L 8.015625 -13.1875 
Q 14.5 -2 17.703125 9.0625 
Q 20.90625 20.125 20.90625 31.390625 
Q 20.90625 42.671875 17.703125 53.65625 
Q 14.5 64.65625 8.015625 75.875 
z
" id="DejaVuSans-29"/>
     </defs>
     <g transform="translate(323.8075 72.748562)scale(0.1 -0.1)">
      <use xlink:href="#DejaVuSans-70"/>
      <use x="63.476562" xlink:href="#DejaVuSans-72"/>
      <use x="104.558594" xlink:href="#DejaVuSans-65"/>
      <use x="166.082031" xlink:href="#DejaVuSans-64"/>
      <use x="229.558594" xlink:href="#DejaVuSans-69"/>
      <use x="257.341797" xlink:href="#DejaVuSans-63"/>
      <use x="312.322266" xlink:href="#DejaVuSans-74"/>
      <use x="351.53125" xlink:href="#DejaVuSans-65"/>
      <use x="413.054688" xlink:href="#DejaVuSans-64"/>
      <use x="476.53125" xlink:href="#DejaVuSans-20"/>
      <use x="508.318359" xlink:href="#DejaVuSans-28"/>
      <use x="547.332031" xlink:href="#DejaVuSans-74"/>
      <use x="586.541016" xlink:href="#DejaVuSans-72"/>
      <use x="627.654297" xlink:href="#DejaVuSans-61"/>
      <use x="688.933594" xlink:href="#DejaVuSans-69"/>
      <use x="716.716797" xlink:href="#DejaVuSans-6e"/>
      <use x="780.095703" xlink:href="#DejaVuSans-29"/>
     </g>
    </g>
   </g>
  </g>
 </g>
 <defs>
  <clipPath id="p316bf16137">
   <rect height="266.112" width="357.12" x="57.6" y="41.472"/>
  </clipPath>
 </defs>
</svg>
